# xmcd
#
# Track frame offsets:
#	150
#	14979
#	29913
#	46789
#	68296
#	81610
#	107992
#	128943
#	160909
#	184987
#	207472
#	220866
#	254626
#	271012
#
# Disc length: 3772 seconds
#
# Revision: 0
# Processed by: cddbd v1.5.1PL0 Copyright (c) Steve Scherf et al.
# Submitted via: dBpowerAMP V4.0
#
DISCID=d90eba0e
DTITLE=Lloyd Thayer - Big Heart
DYEAR=2004
DGENRE=Dobro Blues
TTITLE0=So Tired of Waiting For Your Love
TTITLE1=Wonderland
TTITLE2=Addict
TTITLE3=Concrete Island
TTITLE4=Chubby Junkie
TTITLE5=Flat World
TTITLE6=War Starter Blues
TTITLE7=Freedom
TTITLE8=Home of the Brave
TTITLE9=Whole Heart
TTITLE10=Fixing Things
TTITLE11=Desolation Row
TTITLE12=See You Tomorrow Blues
TTITLE13=Rag Stalk's 115 th Dream
EXTD=Little Peoplle's Laundry.2004
EXTT0=
EXTT1=
EXTT2=
EXTT3=
EXTT4=
EXTT5=
EXTT6=
EXTT7=
EXTT8=
EXTT9=
EXTT10=
EXTT11=
EXTT12=
EXTT13=
PLAYORDER=
